<svg width="891" height="580" viewBox="0 0 891 580" fill="none" xmlns="http://www.w3.org/2000/svg">
<ellipse cx="383.455" cy="554.834" rx="507.455" ry="56.1068" fill="#E0E0E0"/>
<path d="M413.477 282.392L425.159 297.271L465.385 174.896L461.199 144.631L413.477 282.392Z" fill="#3F3D56"/>
<path d="M444.275 184.465L364.06 155.448C364.608 145.71 382.588 142.559 382.588 142.559L448.736 174.808C451.04 175.931 453.18 177.362 455.098 179.062V179.062L444.275 184.465Z" fill="#F2F2F2"/>
<path d="M445.913 195.539L452.596 148.972C457.916 148.177 461.631 157.533 461.631 157.533L451.628 196.867C451.279 198.236 450.746 199.553 450.043 200.779V200.779L445.913 195.539Z" fill="#F2F2F2"/>
<path d="M454.327 177.165L409.438 161.412L364.549 145.659L325.866 291.686L417.046 316.782C425.114 317.231 430.547 309.859 430.547 309.859L465.706 174.52L454.327 177.165Z" fill="#3F3D56"/>
<path d="M382.516 147.125L382.208 147.809L428.057 168.388L428.364 167.703L382.516 147.125Z" fill="#B3B3B3"/>
<path fill-rule="evenodd" clip-rule="evenodd" d="M130.214 131.069C120.557 116.735 114.632 99.6575 117.382 81.3006C125.303 28.4093 193.972 45.8846 205.293 73.85C216.613 101.815 209.356 169.769 191.451 173.114C184.31 174.448 169.825 168.528 155.491 157.573L159.066 229.822L102.962 225.169L130.214 131.069Z" fill="#B28B67"/>
<path fill-rule="evenodd" clip-rule="evenodd" d="M94.2479 60.8705C92.5941 58.8111 91.8317 56.0044 91.1912 53.3461C90.5261 50.5848 89.8885 47.7978 89.531 44.9514C88.8165 39.2641 89.3385 32.8351 93.4494 28.8059C96.7463 25.5749 101.39 24.3882 105.583 24.3944C108.378 24.3984 111.194 25.048 113.777 26.1984C116.34 27.3397 118.463 29.3667 120.928 30.7199C121.525 24.7045 123.018 18.4822 126.319 13.5774C129.496 8.85826 134.137 6.44706 139.22 6.12895C144.438 5.80254 149.422 7.50715 153.817 10.543C154.917 11.3033 156.004 12.0943 157.034 12.973C157.897 13.7088 158.785 14.5824 159.839 14.94C161.014 15.339 161.669 14.6516 162.526 13.7858C163.531 12.7706 164.641 11.8951 165.801 11.1336C170.933 7.76724 177.386 6.74324 182.782 9.46378C185.269 10.7172 187.624 12.691 189.167 15.2698C190.543 17.5685 191.368 21.1022 193.39 22.7919C194.248 23.5092 194.962 22.7124 195.843 22.1529C197.168 21.3121 198.443 20.3689 199.78 19.5551C201.659 18.4118 203.657 17.6057 205.753 17.2709C208.822 16.7807 212.963 17.2987 213.476 21.557C213.668 23.1564 213.281 24.8179 213.045 26.3939C212.722 28.5578 212.392 30.7205 212.034 32.8784C211.763 34.5168 211.46 36.0959 211.033 37.6916C210.805 38.5421 210.182 40.1114 210.459 41.005C210.805 42.122 212.865 41.6741 213.72 41.7829C215.409 41.9979 217.085 42.4552 218.589 43.3552C219.754 44.0529 220.958 45.0367 221.348 46.5594C221.588 47.4948 221.428 48.4219 221.201 49.345C220.929 50.4529 221.084 51.0653 221.124 52.2091C223.499 51.2061 231.609 49.2123 232.242 53.6325C232.453 55.1043 231.565 56.6739 230.89 57.8444C229.705 59.8974 228.223 61.7406 226.718 63.491C223.58 67.1425 219.941 70.2146 216.086 72.7803C220.158 75.1345 220.774 81.1336 216.813 84.3489C215.064 85.7684 212.857 85.9337 210.822 85.6648C210.077 85.5665 209.024 85.1714 208.424 85.2611C208.101 85.3092 207.739 85.5665 207.297 85.562C204.396 85.5328 201.202 84.5241 198.439 83.61C193.516 81.9812 188.971 79.0569 185.407 74.8816C184.493 73.8106 183.717 73.1734 182.375 73.0768C181.199 72.9919 180.017 73.2388 178.841 73.1731C175.728 72.9998 173.061 71.1532 170.266 69.8396C169.746 73.9672 168.258 78.4372 166.355 82.0316C164.803 84.9626 162.052 85.1791 159.362 85.2245C150.763 85.3702 142.282 83.7083 133.741 83.0126C141.843 85.6847 150.318 87.2119 158.318 90.229C161.934 91.5926 158.885 94.0116 157.149 95.7198C154.29 98.5328 152.04 102.125 150.368 105.968C146.788 100.028 139.947 95.7431 133.471 96.9395C126.316 98.261 120.555 107.912 124.429 115.514C126.679 119.928 131.235 121.938 134.989 124.065C131.665 127.178 130.516 132.088 128.336 136.123C127.261 138.112 125.799 140.342 123.717 140.894C122.947 141.098 122.069 141.048 121.425 141.647C120.627 142.389 120.379 143.272 119.388 143.884C115.435 146.328 109.635 145.633 106.632 141.767C103.916 138.271 105.119 133.194 107.886 130.107C104.062 128.019 97.0193 125.158 99.1418 118.715C90.592 117.395 70.9409 100.836 83.3822 90.9579C77.3632 86.6266 72.3149 76.8427 77.0639 68.981C80.7207 62.9273 88.2416 60.7094 94.2479 60.8705Z" fill="#191847"/>
<path fill-rule="evenodd" clip-rule="evenodd" d="M437.52 555.028L335.272 335.541C323.171 294.94 394.331 282.671 404.724 302.574C428.319 347.759 484.497 515.875 491.527 529.337L437.52 555.028Z" fill="#1F28CF"/>
<path fill-rule="evenodd" clip-rule="evenodd" d="M429.001 357.891L216.194 491.428C175.826 508.938 152.613 435.253 171.745 421.961C215.18 391.782 381.438 312.869 394.379 303.878L429.001 357.891Z" fill="#1F28CF"/>
<path fill-rule="evenodd" clip-rule="evenodd" d="M403.405 467.557C525.587 499.916 508.452 503.715 639.053 524.91L628.35 565.003C460.452 559.178 280.589 544.255 278.707 542.867C275.885 540.785 165.473 548.517 131.623 548.517C82.8109 548.517 62.6185 504.467 60.98 422.866H157.674C177.362 425.88 275.449 449.131 321.318 450.296C342.954 450.296 356.328 455.089 403.405 467.557Z" fill="#0B5CD6"/>
<path fill-rule="evenodd" clip-rule="evenodd" d="M624.044 564.916C631.274 568.111 636.734 569.852 640.424 570.138C644.911 570.485 651.515 570.29 660.234 569.55C660.613 564.653 664.024 520.639 670.465 437.509C658.672 433.143 652.008 434.62 650.474 441.938C648.939 449.256 647.595 455.33 646.442 460.16L612.601 519.278C611.95 520.415 612.407 521.843 613.621 522.467C613.642 522.477 613.663 522.488 613.684 522.498L623.551 527.231C626.416 534.338 627.682 540.031 627.35 544.309C627.081 547.786 625.216 552.471 621.757 558.365L621.757 558.365C620.429 560.627 621.311 563.491 623.726 564.763C623.83 564.817 623.936 564.869 624.044 564.916Z" fill="#B4B4B4"/>
<path fill-rule="evenodd" clip-rule="evenodd" d="M216.988 332.467C247.7 338.618 297.793 326.052 367.267 294.767C387.299 332.484 397.157 359.645 396.843 376.251C337.909 413.891 286.54 432.217 243.514 435.866C246.556 462.96 245.035 489.013 236.036 513.286C217.534 563.189 88.9225 525.943 47.1552 537.402C47.1551 435.866 64.6858 418.931 60.4123 348.687C60.4123 281.781 98.8572 182.937 105.981 182.498L170.944 178.5C177.541 227.235 198.902 280.077 216.988 332.467Z" fill="#E7350E"/>
<path d="M373.48 290.509L367.246 295.496C370.987 309.211 383.455 332.901 379.715 325.42C377.416 320.822 378.468 321.679 407.145 314.198C435.821 306.717 438.315 265.572 434.575 258.092C430.834 250.611 395.923 279.287 393.43 278.041C390.936 276.794 392.183 259.338 388.442 258.092C385.45 257.094 377.221 279.287 373.48 290.509Z" fill="#B28B67"/>
</svg>
